# xmcd CD database file
#
# Track frame offsets:
#	150
#	11235
#	28067
#	50437
#	77680
#	95200
#	114887
#	140090
#	157935
#	187187
#	204850
#	232637
#	261662
#
# Disc length: 3968 seconds
#
# Revision: 0
# Processed by: cddbd v1.5.2PL0 Copyright (c) Steve Scherf et al.
# Submitted via: CDex 1.51
#
DISCID=ad0f7e0d
DTITLE=McCoy Tyner - Things Ain't what they used to be
DYEAR=1990
DGENRE=Jazz
TTITLE0=The Greeting
TTITLE1=Naima
TTITLE2=I mean You
TTITLE3=Here's that Rainy Day
TTITLE4=Things ain't what they used to be
TTITLE5=Joy Spring
TTITLE6=Lush Life
TTITLE7=Sweet and Lovely
TTITLE8=Sond for my Lady
TTITLE9=What's new
TTITLE10=Search for Peace
TTITLE11=Blues on the Corner
TTITLE12=My one and only Love
EXTD=YEAR: 1990
EXTT0=
EXTT1=
EXTT2=
EXTT3=
EXTT4=
EXTT5=
EXTT6=
EXTT7=
EXTT8=
EXTT9=
EXTT10=
EXTT11=
EXTT12=
PLAYORDER=
